<svg width="78" height="55" viewBox="0 0 78 55" fill="none" xmlns="http://www.w3.org/2000/svg">
<path d="M17.6306 17.0124C22.2184 17.0124 25.9375 13.2742 25.9375 8.66304C25.9375 4.05184 22.2184 0.313721 17.6306 0.313721C13.0428 0.313721 9.32373 4.05184 9.32373 8.66304C9.32373 13.2742 13.0428 17.0124 17.6306 17.0124Z" fill="#213A8F"/>
<path d="M59.7278 16.7879C64.3155 16.7879 68.0347 13.0498 68.0347 8.43856C68.0347 3.82736 64.3155 0.0892334 59.7278 0.0892334C55.14 0.0892334 51.4209 3.82736 51.4209 8.43856C51.4209 13.0498 55.14 16.7879 59.7278 16.7879Z" fill="#213A8F"/>
<path d="M36.5535 32.2719C36.5535 25.2975 28.3702 19.6458 18.2767 19.6458C8.18325 19.6458 0 25.2975 0 32.2719C0 38.4568 6.44052 43.6075 14.9428 44.6897C16.0235 44.826 17.1402 44.8981 18.2767 44.8981C28.3702 44.8981 36.5535 39.2464 36.5535 32.2719Z" fill="#213A8F"/>
<path d="M22.2605 53.6883L12.6416 44.2888L22.2605 44.5934V53.6883Z" fill="#213A8F"/>
<path d="M41.4463 32.6728C41.4463 25.6984 49.6295 20.0466 59.723 20.0466C69.8165 20.0466 77.9997 25.6984 77.9997 32.6728C77.9997 38.8576 71.5592 44.0083 63.0569 45.0906C61.9762 45.2269 60.8596 45.299 59.723 45.299C49.6335 45.299 41.4463 39.6473 41.4463 32.6728Z" fill="#213A8F"/>
<path d="M55.7393 54.0892L65.3582 44.6897L55.7393 44.9943V54.0892Z" fill="#213A8F"/>
<path d="M9.23627 35.627C11.1172 35.627 12.642 34.0944 12.642 32.2039C12.642 30.3133 11.1172 28.7808 9.23627 28.7808C7.35535 28.7808 5.83057 30.3133 5.83057 32.2039C5.83057 34.0944 7.35535 35.627 9.23627 35.627Z" fill="white"/>
<path d="M18.0092 35.627C19.8901 35.627 21.4149 34.0944 21.4149 32.2039C21.4149 30.3133 19.8901 28.7808 18.0092 28.7808C16.1283 28.7808 14.6035 30.3133 14.6035 32.2039C14.6035 34.0944 16.1283 35.627 18.0092 35.627Z" fill="white"/>
<path d="M26.9589 35.627C28.8398 35.627 30.3646 34.0944 30.3646 32.2039C30.3646 30.3133 28.8398 28.7808 26.9589 28.7808C25.078 28.7808 23.5532 30.3133 23.5532 32.2039C23.5532 34.0944 25.078 35.627 26.9589 35.627Z" fill="white"/>
<path d="M50.4443 35.627C52.3252 35.627 53.85 34.0944 53.85 32.2039C53.85 30.3133 52.3252 28.7808 50.4443 28.7808C48.5634 28.7808 47.0386 30.3133 47.0386 32.2039C47.0386 34.0944 48.5634 35.627 50.4443 35.627Z" fill="white"/>
<path d="M59.2177 35.627C61.0986 35.627 62.6234 34.0944 62.6234 32.2039C62.6234 30.3133 61.0986 28.7808 59.2177 28.7808C57.3368 28.7808 55.812 30.3133 55.812 32.2039C55.812 34.0944 57.3368 35.627 59.2177 35.627Z" fill="white"/>
<path d="M68.1664 35.627C70.0474 35.627 71.5721 34.0944 71.5721 32.2039C71.5721 30.3133 70.0474 28.7808 68.1664 28.7808C66.2855 28.7808 64.7607 30.3133 64.7607 32.2039C64.7607 34.0944 66.2855 35.627 68.1664 35.627Z" fill="white"/>
</svg>
