<svg width="50" height="51" viewBox="0 0 50 51" fill="none" xmlns="http://www.w3.org/2000/svg">
<path d="M11.5947 18.8997C14.4727 18.8997 16.8057 16.5548 16.8057 13.6621C16.8057 10.7695 14.4727 8.42456 11.5947 8.42456C8.71681 8.42456 6.38379 10.7695 6.38379 13.6621C6.38379 16.5548 8.71681 18.8997 11.5947 18.8997Z" fill="#213A8F"/>
<path d="M38.0026 18.7588C40.8805 18.7588 43.2135 16.4139 43.2135 13.5213C43.2135 10.6286 40.8805 8.28369 38.0026 8.28369C35.1247 8.28369 32.7916 10.6286 32.7916 13.5213C32.7916 16.4139 35.1247 18.7588 38.0026 18.7588Z" fill="#213A8F"/>
<path d="M23.4651 28.472C23.4651 24.0969 18.3317 20.5515 12 20.5515C5.66831 20.5515 0.534912 24.0969 0.534912 28.472C0.534912 32.3518 4.57509 35.5828 9.90862 36.2617C10.5866 36.3472 11.287 36.3925 12 36.3925C18.3317 36.3925 23.4651 32.8471 23.4651 28.472Z" fill="#213A8F"/>
<path d="M14.4991 41.9066L8.46509 36.0103L14.4991 36.2013V41.9066Z" fill="#213A8F"/>
<path d="M26.5345 28.7235C26.5345 24.3483 31.6679 20.803 37.9996 20.803C44.3313 20.803 49.4647 24.3483 49.4647 28.7235C49.4647 32.6032 45.4246 35.8343 40.091 36.5132C39.4131 36.5987 38.7126 36.6439 37.9996 36.6439C31.6704 36.6439 26.5345 33.0986 26.5345 28.7235Z" fill="#213A8F"/>
<path d="M35.5006 42.1581L41.5346 36.2617L35.5006 36.4528V42.1581Z" fill="#213A8F"/>
<path d="M6.3288 30.5766C7.50871 30.5766 8.46521 29.6152 8.46521 28.4293C8.46521 27.2434 7.50871 26.282 6.3288 26.282C5.14889 26.282 4.19238 27.2434 4.19238 28.4293C4.19238 29.6152 5.14889 30.5766 6.3288 30.5766Z" fill="white"/>
<path d="M11.8321 30.5766C13.012 30.5766 13.9685 29.6152 13.9685 28.4293C13.9685 27.2434 13.012 26.282 11.8321 26.282C10.6522 26.282 9.69568 27.2434 9.69568 28.4293C9.69568 29.6152 10.6522 30.5766 11.8321 30.5766Z" fill="white"/>
<path d="M17.4461 30.5766C18.626 30.5766 19.5825 29.6152 19.5825 28.4293C19.5825 27.2434 18.626 26.282 17.4461 26.282C16.2662 26.282 15.3097 27.2434 15.3097 28.4293C15.3097 29.6152 16.2662 30.5766 17.4461 30.5766Z" fill="white"/>
<path d="M32.1789 30.5766C33.3588 30.5766 34.3153 29.6152 34.3153 28.4293C34.3153 27.2434 33.3588 26.282 32.1789 26.282C30.999 26.282 30.0425 27.2434 30.0425 28.4293C30.0425 29.6152 30.999 30.5766 32.1789 30.5766Z" fill="white"/>
<path d="M37.6826 30.5766C38.8625 30.5766 39.819 29.6152 39.819 28.4293C39.819 27.2434 38.8625 26.282 37.6826 26.282C36.5027 26.282 35.5461 27.2434 35.5461 28.4293C35.5461 29.6152 36.5027 30.5766 37.6826 30.5766Z" fill="white"/>
<path d="M43.2962 30.5766C44.4761 30.5766 45.4326 29.6152 45.4326 28.4293C45.4326 27.2434 44.4761 26.282 43.2962 26.282C42.1163 26.282 41.1598 27.2434 41.1598 28.4293C41.1598 29.6152 42.1163 30.5766 43.2962 30.5766Z" fill="white"/>
</svg>
