<svg width="17" height="15" viewBox="0 0 17 15" fill="none" xmlns="http://www.w3.org/2000/svg">
<rect width="15" height="15" transform="translate(1)" fill="white"/>
<path d="M9.94545 8.94543C9.75819 9.14639 9.53238 9.30758 9.28147 9.41937C9.03056 9.53117 8.75971 9.59129 8.48506 9.59613C8.21042 9.60098 7.93761 9.55046 7.68292 9.44758C7.42822 9.3447 7.19686 9.19158 7.00262 8.99735C6.80839 8.80312 6.65527 8.57175 6.55239 8.31706C6.44952 8.06236 6.399 7.78956 6.40384 7.51491C6.40869 7.24027 6.4688 6.96941 6.5806 6.71851C6.69239 6.4676 6.85358 6.24178 7.05455 6.05452" stroke="#808080" stroke-linecap="round" stroke-linejoin="round"/>
<path d="M7.05455 6.05452C7.24181 5.85355 7.46763 5.69237 7.71853 5.58057C7.96944 5.46877 8.24029 5.40866 8.51494 5.40381C8.78958 5.39897 9.06239 5.44949 9.31708 5.55236C9.57178 5.65524 9.80314 5.80836 9.99738 6.00259C10.1916 6.19683 10.3447 6.42819 10.4476 6.68289C10.5505 6.93758 10.601 7.21039 10.5962 7.48503C10.5913 7.75968 10.5312 8.03053 10.4194 8.28144C10.3076 8.53235 10.1464 8.75817 9.94545 8.94543" stroke="#808080" stroke-linecap="round" stroke-linejoin="round"/>
</svg>
