<svg width="17" height="13" viewBox="0 0 17 13" fill="none" xmlns="http://www.w3.org/2000/svg">
<path d="M9.94545 7.94543C9.75819 8.14639 9.53238 8.30758 9.28147 8.41937C9.03056 8.53117 8.75971 8.59129 8.48506 8.59613C8.21042 8.60098 7.93761 8.55046 7.68292 8.44758C7.42822 8.3447 7.19686 8.19158 7.00262 7.99735C6.80839 7.80312 6.65527 7.57175 6.55239 7.31706C6.44952 7.06236 6.399 6.78956 6.40384 6.51491C6.40869 6.24027 6.4688 5.96941 6.5806 5.71851C6.69239 5.4676 6.85358 5.24178 7.05455 5.05452" stroke="#808080" stroke-linecap="round" stroke-linejoin="round"/>
<path d="M7.05455 5.05452C7.24181 4.85355 7.46763 4.69237 7.71853 4.58057C7.96944 4.46877 8.24029 4.40866 8.51494 4.40381C8.78958 4.39897 9.06239 4.44949 9.31708 4.55236C9.57178 4.65524 9.80314 4.80836 9.99738 5.00259C10.1916 5.19683 10.3447 5.42819 10.4476 5.68289C10.5505 5.93758 10.601 6.21039 10.5962 6.48503C10.5913 6.75968 10.5312 7.03053 10.4194 7.28144C10.3076 7.53235 10.1464 7.75817 9.94545 7.94543" stroke="#808080" stroke-linecap="round" stroke-linejoin="round"/>
</svg>
