<svg width="20" height="19" viewBox="0 0 20 19" fill="none" xmlns="http://www.w3.org/2000/svg">
<path d="M19.7397 7.71014C19.7581 7.58714 19.7518 7.46175 19.7211 7.34117C19.6905 7.22058 19.636 7.10715 19.5609 7.00739C19.4858 6.90762 19.3916 6.82347 19.2835 6.75976C19.1755 6.69604 19.0558 6.65402 18.9313 6.63609L13.525 5.85513L11.1084 0.988822C11.0211 0.840075 10.8959 0.716611 10.7451 0.630814C10.5944 0.545017 10.4234 0.499904 10.2495 0.5C10.0755 0.500096 9.90462 0.545397 9.75397 0.63136C9.60331 0.717323 9.47817 0.840924 9.39111 0.989767L6.97545 5.85513L1.56917 6.63609C1.3927 6.66142 1.22691 6.73499 1.0905 6.84849C0.954098 6.962 0.852505 7.11092 0.797191 7.27845C0.741877 7.44599 0.735043 7.62546 0.77746 7.79663C0.819877 7.9678 0.909857 8.12384 1.03725 8.24716L4.953 12.0413L4.02883 17.3964C3.99962 17.5702 4.02003 17.7487 4.08777 17.9116C4.15551 18.0746 4.2679 18.2157 4.41231 18.319C4.55672 18.4223 4.72742 18.4838 4.90524 18.4965C5.08306 18.5093 5.26094 18.4727 5.41891 18.3911L10.2502 15.8667L15.0806 18.3901C15.2383 18.4727 15.4163 18.5099 15.5944 18.4977C15.7725 18.4855 15.9436 18.4243 16.0883 18.321C16.233 18.2177 16.3456 18.0765 16.4134 17.9133C16.4811 17.75 16.5013 17.5713 16.4716 17.3974L15.5474 12.0413L19.4642 8.24621C19.6126 8.10191 19.7093 7.9137 19.7397 7.71014ZM14.6989 11.5393C14.6438 11.5928 14.6026 11.6586 14.5788 11.7312C14.555 11.8038 14.5493 11.881 14.562 11.9562L15.5283 17.5543L10.4731 14.9136C10.4043 14.8783 10.3278 14.8598 10.2502 14.8598C10.1726 14.8598 10.0962 14.8783 10.0273 14.9136L4.97213 17.5553L5.9384 11.9562C5.95119 11.881 5.94543 11.8038 5.92161 11.7312C5.8978 11.6586 5.85663 11.5928 5.80159 11.5393L1.70693 7.57115L7.36292 6.75427C7.43982 6.74295 7.5128 6.71338 7.57561 6.6681C7.63842 6.62282 7.6892 6.56318 7.72359 6.49427L10.2502 1.40672L12.7759 6.49521C12.8104 6.56424 12.8613 6.62396 12.9243 6.66925C12.9873 6.71454 13.0605 6.74404 13.1375 6.75522L18.7945 7.57115L14.6989 11.5393Z" fill="#FFB904"/>
</svg>
