<svg width="80" height="79" viewBox="0 0 80 79" fill="none" xmlns="http://www.w3.org/2000/svg">
<path d="M18.7431 16.7486C23.3067 16.7486 27.0063 13.049 27.0063 8.48538C27.0063 3.92174 23.3067 0.222168 18.7431 0.222168C14.1794 0.222168 10.4799 3.92174 10.4799 8.48538C10.4799 13.049 14.1794 16.7486 18.7431 16.7486Z" fill="#213A8F"/>
<path d="M60.6186 16.5264C65.1822 16.5264 68.8818 12.8269 68.8818 8.26321C68.8818 3.69957 65.1822 0 60.6186 0C56.0549 0 52.3553 3.69957 52.3553 8.26321C52.3553 12.8269 56.0549 16.5264 60.6186 16.5264Z" fill="#213A8F"/>
<path d="M37.5663 31.8509C37.5663 24.9484 29.4261 19.355 19.3857 19.355C9.34531 19.355 1.20508 24.9484 1.20508 31.8509C1.20508 37.972 7.61174 43.0695 16.0693 44.1406C17.1444 44.2755 18.2551 44.3469 19.3857 44.3469C29.4261 44.3469 37.5663 38.7535 37.5663 31.8509Z" fill="#213A8F"/>
<path d="M23.3489 53.0467L13.7805 43.7441L23.3489 44.0456V53.0467Z" fill="#213A8F"/>
<path d="M42.4337 32.2474C42.4337 25.3449 50.5739 19.7515 60.6143 19.7515C70.6547 19.7515 78.795 25.3449 78.795 32.2474C78.795 38.3685 72.3883 43.466 63.9307 44.5371C62.8557 44.672 61.7449 44.7434 60.6143 44.7434C50.5779 44.7434 42.4337 39.15 42.4337 32.2474Z" fill="#213A8F"/>
<path d="M56.6514 53.4432L66.2197 44.1406L56.6514 44.4421V53.4432Z" fill="#213A8F"/>
<path d="M10.3927 35.1711C12.2637 35.1711 13.7805 33.6543 13.7805 31.7833C13.7805 29.9123 12.2637 28.3955 10.3927 28.3955C8.52165 28.3955 7.00488 29.9123 7.00488 31.7833C7.00488 33.6543 8.52165 35.1711 10.3927 35.1711Z" fill="white"/>
<path d="M19.12 35.1711C20.991 35.1711 22.5078 33.6543 22.5078 31.7833C22.5078 29.9123 20.991 28.3955 19.12 28.3955C17.2489 28.3955 15.7322 29.9123 15.7322 31.7833C15.7322 33.6543 17.2489 35.1711 19.12 35.1711Z" fill="white"/>
<path d="M28.0221 35.1711C29.8931 35.1711 31.4099 33.6543 31.4099 31.7833C31.4099 29.9123 29.8931 28.3955 28.0221 28.3955C26.151 28.3955 24.6343 29.9123 24.6343 31.7833C24.6343 33.6543 26.151 35.1711 28.0221 35.1711Z" fill="white"/>
<path d="M51.3839 35.1711C53.2549 35.1711 54.7717 33.6543 54.7717 31.7833C54.7717 29.9123 53.2549 28.3955 51.3839 28.3955C49.5129 28.3955 47.9961 29.9123 47.9961 31.7833C47.9961 33.6543 49.5129 35.1711 51.3839 35.1711Z" fill="white"/>
<path d="M60.1112 35.1711C61.9822 35.1711 63.499 33.6543 63.499 31.7833C63.499 29.9123 61.9822 28.3955 60.1112 28.3955C58.2402 28.3955 56.7234 29.9123 56.7234 31.7833C56.7234 33.6543 58.2402 35.1711 60.1112 35.1711Z" fill="white"/>
<path d="M69.0133 35.1711C70.8843 35.1711 72.4011 33.6543 72.4011 31.7833C72.4011 29.9123 70.8843 28.3955 69.0133 28.3955C67.1423 28.3955 65.6255 29.9123 65.6255 31.7833C65.6255 33.6543 67.1423 35.1711 69.0133 35.1711Z" fill="white"/>
<path opacity="0.8" d="M5.40909 74.6133C4.51515 74.6133 3.74621 74.4239 3.10227 74.0451C2.46212 73.6626 1.9697 73.1323 1.625 72.4542C1.28409 71.7762 1.11364 70.9959 1.11364 70.1133C1.11364 69.2194 1.28598 68.4353 1.63068 67.7611C1.97917 67.083 2.47348 66.5546 3.11364 66.1758C3.75379 65.7932 4.51515 65.602 5.39773 65.602C6.15909 65.602 6.82576 65.7402 7.39773 66.0167C7.9697 66.2932 8.42235 66.6815 8.75568 67.1815C9.08902 67.6815 9.27273 68.2686 9.30682 68.9429H7.02273C6.95833 68.5073 6.78788 68.1569 6.51136 67.8917C6.23864 67.6228 5.88068 67.4883 5.4375 67.4883C5.0625 67.4883 4.73485 67.5906 4.45455 67.7951C4.17803 67.9959 3.96212 68.2895 3.80682 68.6758C3.65152 69.0622 3.57386 69.53 3.57386 70.0792C3.57386 70.6361 3.64962 71.1095 3.80114 71.4997C3.95644 71.8898 4.17424 72.1872 4.45455 72.3917C4.73485 72.5963 5.0625 72.6986 5.4375 72.6986C5.71402 72.6986 5.96212 72.6417 6.18182 72.5281C6.4053 72.4145 6.58902 72.2497 6.73295 72.0338C6.88068 71.8141 6.97727 71.5508 7.02273 71.244H9.30682C9.26894 71.9107 9.08712 72.4978 8.76136 73.0054C8.43939 73.5092 7.99432 73.9031 7.42614 74.1872C6.85795 74.4713 6.18561 74.6133 5.40909 74.6133ZM13.277 69.3974V74.4429H10.8565V62.8065H13.2088V67.2554H13.3111C13.508 66.7402 13.8262 66.3368 14.2656 66.0451C14.705 65.7497 15.2562 65.602 15.919 65.602C16.5251 65.602 17.0535 65.7345 17.5043 65.9997C17.9588 66.2611 18.3111 66.6379 18.5611 67.1304C18.8149 67.619 18.9399 68.2042 18.9361 68.8861V74.4429H16.5156V69.3179C16.5194 68.78 16.383 68.3614 16.1065 68.0622C15.8338 67.7629 15.4512 67.6133 14.9588 67.6133C14.6293 67.6133 14.3376 67.6834 14.0838 67.8236C13.8338 67.9637 13.6368 68.1682 13.4929 68.4372C13.3527 68.7023 13.2808 69.0224 13.277 69.3974ZM24.8182 74.6133C23.9205 74.6133 23.1477 74.4315 22.5 74.0679C21.8561 73.7004 21.3598 73.1815 21.0114 72.5111C20.6629 71.8368 20.4886 71.0395 20.4886 70.119C20.4886 69.2213 20.6629 68.4334 21.0114 67.7554C21.3598 67.0773 21.8504 66.5489 22.483 66.1701C23.1193 65.7914 23.8655 65.602 24.7216 65.602C25.2973 65.602 25.8333 65.6948 26.3295 65.8804C26.8295 66.0622 27.2652 66.3368 27.6364 66.7042C28.0114 67.0717 28.303 67.5338 28.5114 68.0906C28.7197 68.6436 28.8239 69.2914 28.8239 70.0338V70.6986H21.4545V69.1986H26.5455C26.5455 68.8501 26.4697 68.5414 26.3182 68.2724C26.1667 68.0035 25.9564 67.7932 25.6875 67.6417C25.4223 67.4864 25.1136 67.4088 24.7614 67.4088C24.3939 67.4088 24.0682 67.494 23.7841 67.6645C23.5038 67.8311 23.2841 68.0565 23.125 68.3406C22.9659 68.6209 22.8845 68.9334 22.8807 69.2781V70.7042C22.8807 71.1361 22.9602 71.5092 23.1193 71.8236C23.2822 72.1379 23.5114 72.3804 23.8068 72.5508C24.1023 72.7213 24.4527 72.8065 24.858 72.8065C25.1269 72.8065 25.3731 72.7686 25.5966 72.6929C25.8201 72.6171 26.0114 72.5035 26.1705 72.352C26.3295 72.2004 26.4508 72.0148 26.5341 71.7951L28.7727 71.9429C28.6591 72.4807 28.4261 72.9504 28.0739 73.352C27.7254 73.7497 27.2746 74.0603 26.7216 74.2838C26.1723 74.5035 25.5379 74.6133 24.8182 74.6133ZM34.3466 74.6133C33.4527 74.6133 32.6837 74.4239 32.0398 74.0451C31.3996 73.6626 30.9072 73.1323 30.5625 72.4542C30.2216 71.7762 30.0511 70.9959 30.0511 70.1133C30.0511 69.2194 30.2235 68.4353 30.5682 67.7611C30.9167 67.083 31.411 66.5546 32.0511 66.1758C32.6913 65.7932 33.4527 65.602 34.3352 65.602C35.0966 65.602 35.7633 65.7402 36.3352 66.0167C36.9072 66.2932 37.3598 66.6815 37.6932 67.1815C38.0265 67.6815 38.2102 68.2686 38.2443 68.9429H35.9602C35.8958 68.5073 35.7254 68.1569 35.4489 67.8917C35.1761 67.6228 34.8182 67.4883 34.375 67.4883C34 67.4883 33.6723 67.5906 33.392 67.7951C33.1155 67.9959 32.8996 68.2895 32.7443 68.6758C32.589 69.0622 32.5114 69.53 32.5114 70.0792C32.5114 70.6361 32.5871 71.1095 32.7386 71.4997C32.8939 71.8898 33.1117 72.1872 33.392 72.3917C33.6723 72.5963 34 72.6986 34.375 72.6986C34.6515 72.6986 34.8996 72.6417 35.1193 72.5281C35.3428 72.4145 35.5265 72.2497 35.6705 72.0338C35.8182 71.8141 35.9148 71.5508 35.9602 71.244H38.2443C38.2064 71.9107 38.0246 72.4978 37.6989 73.0054C37.3769 73.5092 36.9318 73.9031 36.3636 74.1872C35.7955 74.4713 35.1231 74.6133 34.3466 74.6133ZM41.9872 71.9315L41.9929 69.0281H42.3452L45.1406 65.7156H47.919L44.1634 70.102H43.5895L41.9872 71.9315ZM39.794 74.4429V62.8065H42.2145V74.4429H39.794ZM45.2486 74.4429L42.6804 70.6417L44.294 68.9315L48.0838 74.4429H45.2486ZM54.2472 68.7042V70.6247H48.9403V68.7042H54.2472ZM56.3097 74.4429V65.7156H58.6165V67.2554H58.7188C58.9006 66.744 59.2036 66.3406 59.6278 66.0451C60.0521 65.7497 60.5597 65.602 61.1506 65.602C61.7491 65.602 62.2585 65.7516 62.679 66.0508C63.0994 66.3463 63.3797 66.7478 63.5199 67.2554H63.6108C63.7888 66.7554 64.1108 66.3557 64.5767 66.0565C65.0464 65.7535 65.6013 65.602 66.2415 65.602C67.0559 65.602 67.7169 65.8614 68.2244 66.3804C68.7358 66.8955 68.9915 67.6266 68.9915 68.5736V74.4429H66.5767V69.0508C66.5767 68.566 66.4479 68.2023 66.1903 67.9599C65.9328 67.7175 65.6108 67.5963 65.2244 67.5963C64.785 67.5963 64.4422 67.7364 64.196 68.0167C63.9498 68.2932 63.8267 68.6588 63.8267 69.1133V74.4429H61.4801V68.9997C61.4801 68.5717 61.357 68.2307 61.1108 67.977C60.8684 67.7232 60.5483 67.5963 60.1506 67.5963C59.8816 67.5963 59.6392 67.6645 59.4233 67.8008C59.2112 67.9334 59.0426 68.1209 58.9176 68.3633C58.7926 68.602 58.7301 68.8823 58.7301 69.2042V74.4429H56.3097ZM74.8807 74.6133C73.983 74.6133 73.2102 74.4315 72.5625 74.0679C71.9186 73.7004 71.4223 73.1815 71.0739 72.5111C70.7254 71.8368 70.5511 71.0395 70.5511 70.119C70.5511 69.2213 70.7254 68.4334 71.0739 67.7554C71.4223 67.0773 71.9129 66.5489 72.5455 66.1701C73.1818 65.7914 73.928 65.602 74.7841 65.602C75.3598 65.602 75.8958 65.6948 76.392 65.8804C76.892 66.0622 77.3277 66.3368 77.6989 66.7042C78.0739 67.0717 78.3655 67.5338 78.5739 68.0906C78.7822 68.6436 78.8864 69.2914 78.8864 70.0338V70.6986H71.517V69.1986H76.608C76.608 68.8501 76.5322 68.5414 76.3807 68.2724C76.2292 68.0035 76.0189 67.7932 75.75 67.6417C75.4848 67.4864 75.1761 67.4088 74.8239 67.4088C74.4564 67.4088 74.1307 67.494 73.8466 67.6645C73.5663 67.8311 73.3466 68.0565 73.1875 68.3406C73.0284 68.6209 72.947 68.9334 72.9432 69.2781V70.7042C72.9432 71.1361 73.0227 71.5092 73.1818 71.8236C73.3447 72.1379 73.5739 72.3804 73.8693 72.5508C74.1648 72.7213 74.5152 72.8065 74.9205 72.8065C75.1894 72.8065 75.4356 72.7686 75.6591 72.6929C75.8826 72.6171 76.0739 72.5035 76.233 72.352C76.392 72.2004 76.5133 72.0148 76.5966 71.7951L78.8352 71.9429C78.7216 72.4807 78.4886 72.9504 78.1364 73.352C77.7879 73.7497 77.3371 74.0603 76.7841 74.2838C76.2348 74.5035 75.6004 74.6133 74.8807 74.6133Z" fill="black"/>
</svg>
