<svg width="17" height="17" viewBox="0 0 17 17" fill="none" xmlns="http://www.w3.org/2000/svg">
<path d="M12.55 12.55C11.3845 13.4384 9.9653 13.9306 8.5 13.9545C3.72727 13.9545 1 8.5 1 8.5C1.84811 6.91947 3.02441 5.5386 4.45 4.45M7.06818 3.20909C7.5375 3.09924 8.018 3.04432 8.5 3.04545C13.2727 3.04545 16 8.5 16 8.5C15.5861 9.27428 15.0925 10.0032 14.5273 10.675M9.94545 9.94545C9.75819 10.1464 9.53238 10.3076 9.28147 10.4194C9.03056 10.5312 8.75971 10.5913 8.48506 10.5962C8.21042 10.601 7.93761 10.5505 7.68292 10.4476C7.42822 10.3447 7.19686 10.1916 7.00262 9.99738C6.80839 9.80314 6.65527 9.57178 6.55239 9.31708C6.44952 9.06239 6.399 8.78958 6.40384 8.51494C6.40869 8.24029 6.4688 7.96944 6.5806 7.71853C6.69239 7.46763 6.85358 7.24181 7.05455 7.05455M1 1L16 16" stroke="#808080" stroke-linecap="round" stroke-linejoin="round"/>
</svg>
